<?xml version="1.0" standalone="no"?>
<!DOCTYPE svg PUBLIC "-//W3C//DTD SVG 20010904//EN"
 "http://www.w3.org/TR/2001/REC-SVG-20010904/DTD/svg10.dtd">
<svg version="1.0" xmlns="http://www.w3.org/2000/svg"
 width="1024.000000pt" height="1024.000000pt" viewBox="0 0 1024.000000 1024.000000"
 preserveAspectRatio="xMidYMid meet">
<metadata>
Created by potrace 1.14, written by Peter Selinger 2001-2017
</metadata>
<g transform="translate(0.000000,1024.000000) scale(0.100000,-0.100000)"
fill="#000000" stroke="none">
<path d="M7901 10110 c-140 -158 -285 -339 -355 -445 -58 -87 -91 -121 -176
-182 -100 -72 -453 -276 -789 -457 -148 -80 -330 -149 -449 -171 -85 -16 -243
-52 -587 -135 -93 -22 -285 -75 -425 -116 -140 -42 -291 -86 -335 -98 -234
-66 -624 -235 -1145 -496 -215 -108 -296 -153 -465 -265 -141 -92 -452 -322
-600 -443 -194 -159 -547 -491 -664 -625 -47 -55 -110 -127 -140 -161 -94
-106 -274 -354 -388 -536 -174 -276 -283 -451 -283 -455 0 -6 -121 -218 -174
-305 -114 -185 -157 -261 -231 -405 -43 -82 -95 -180 -115 -217 -72 -126 -250
-500 -331 -691 -44 -106 -84 -201 -89 -212 -5 -11 -18 -48 -29 -82 -11 -34
-45 -120 -76 -191 l-55 -129 0 -961 0 -960 88 -70 c123 -99 134 -109 188 -182
27 -36 83 -99 124 -140 42 -41 86 -96 99 -123 13 -26 51 -89 86 -141 55 -83
115 -216 115 -257 0 -7 16 -47 36 -87 30 -60 37 -85 37 -135 0 -37 -7 -74 -16
-90 l-15 -29 -7 24 c-8 23 -80 117 -101 130 -6 4 -38 28 -72 53 -33 25 -63 45
-66 45 -4 0 -33 17 -64 39 -31 21 -66 41 -77 45 -11 4 -51 41 -90 82 -38 42
-114 122 -167 178 l-98 101 0 -407 0 -408 990 0 c545 0 990 2 990 4 0 3 -24
12 -52 22 -58 18 -326 124 -398 157 -25 11 -58 25 -75 32 -161 63 -359 165
-435 223 -36 27 -85 59 -109 72 -59 30 -146 122 -182 193 -31 61 -56 96 -154
215 -109 133 -124 156 -192 282 -110 205 -152 297 -193 419 -123 368 -172 794
-120 1041 11 52 25 120 31 150 25 129 118 437 195 645 39 106 152 381 190 463
19 41 34 75 34 77 0 7 182 374 243 490 106 202 148 276 212 370 33 50 125 200
204 335 292 498 376 629 581 915 164 229 349 444 521 605 182 170 412 362 478
400 34 19 142 83 239 141 162 96 281 159 467 244 125 57 455 161 695 218 658
158 747 173 1135 187 165 6 356 16 425 22 171 15 423 18 550 7 158 -14 514
-60 610 -78 99 -20 241 -40 355 -51 116 -11 388 -60 438 -79 14 -5 69 -17 123
-26 269 -44 488 -122 829 -295 315 -159 459 -253 770 -499 299 -237 540 -498
749 -809 l96 -144 0 1229 0 1229 -112 28 c-221 54 -314 79 -398 106 -47 16
-123 40 -170 54 -47 13 -139 40 -205 60 -66 19 -201 56 -300 82 -183 47 -347
107 -420 152 -48 30 -128 63 -170 69 -53 7 -105 26 -105 37 0 18 131 62 300
101 293 68 447 112 528 154 23 12 46 21 52 21 5 0 18 8 28 18 11 9 33 25 51
34 17 9 40 33 51 51 20 33 23 35 98 41 42 3 223 7 402 7 266 2 329 5 348 17
21 14 22 19 22 187 l0 173 -37 6 c-21 3 -129 8 -241 11 -111 2 -207 7 -212 10
-15 9 -12 25 4 25 7 0 19 7 26 15 7 8 16 12 21 9 5 -3 9 2 9 10 0 10 12 16 37
18 27 2 37 8 39 23 2 11 -2 23 -9 27 -8 5 -4 8 11 8 20 0 27 10 23 33 0 4 10
7 24 7 14 0 33 4 43 9 9 5 44 17 77 26 33 10 71 22 85 26 14 5 42 11 63 15
l37 6 0 80 0 79 -242 -3 -243 -3 -138 -48 c-76 -26 -144 -47 -151 -47 -46 0
-265 -84 -396 -151 -42 -21 -80 -39 -86 -39 -5 0 -83 -38 -174 -84 -91 -46
-248 -125 -350 -177 -102 -51 -189 -98 -195 -105 -5 -7 -43 -29 -82 -50 -40
-21 -103 -62 -140 -92 -62 -50 -202 -145 -297 -202 -21 -12 -54 -38 -75 -56
-20 -19 -40 -34 -44 -34 -4 0 -18 -9 -30 -21 -12 -11 -35 -26 -52 -33 -16 -7
-55 -34 -86 -59 -101 -83 -189 -94 -189 -25 0 25 11 42 53 82 28 28 79 69 112
90 33 21 71 49 85 61 14 12 86 60 160 105 74 46 189 118 255 160 189 120 218
138 247 149 15 5 66 36 115 68 48 32 95 60 103 63 27 9 161 79 188 98 15 10
53 31 85 47 31 15 57 31 57 36 0 5 8 9 18 10 9 0 37 14 62 29 25 16 66 41 92
54 26 14 49 30 53 36 3 5 15 10 26 10 10 0 19 5 19 10 0 6 9 10 19 10 11 0 23
5 27 11 3 6 22 18 41 26 19 8 37 23 40 33 3 11 9 17 14 14 5 -3 9 2 9 10 0 14
-64 15 -567 15 l-568 0 -114 -129z m1165 73 c-11 -11 -19 6 -11 24 8 17 8 17
12 0 3 -10 2 -21 -1 -24z"/>
<path d="M6590 6016 c-99 -28 -198 -96 -305 -208 -163 -171 -268 -326 -305
-448 -7 -25 -37 -117 -66 -205 -29 -88 -67 -223 -85 -300 -29 -130 -31 -152
-30 -310 2 -240 13 -310 66 -420 53 -109 138 -233 169 -244 12 -5 27 -16 34
-24 58 -69 358 -99 498 -50 76 27 201 102 262 158 64 58 103 114 200 285 81
142 84 152 161 536 84 420 92 479 80 624 -14 177 -32 243 -101 378 -67 130
-93 163 -152 191 -75 35 -349 59 -426 37z m407 -292 c62 -47 91 -124 79 -209
-5 -33 -18 -57 -50 -91 -40 -45 -46 -48 -102 -51 -45 -3 -67 0 -94 15 -86 47
-125 174 -80 266 47 98 164 131 247 70z m87 -505 c31 -25 34 -61 6 -89 -16
-16 -33 -20 -80 -20 -80 0 -120 20 -120 61 0 26 6 33 43 49 56 26 117 26 151
-1z"/>
<path d="M2500 5628 c-58 -13 -125 -57 -237 -157 -106 -94 -154 -155 -192
-244 -27 -62 -42 -92 -81 -157 -61 -104 -123 -246 -165 -377 -97 -309 -116
-369 -124 -413 -5 -25 -17 -74 -26 -110 -41 -164 -29 -254 52 -373 79 -118
120 -153 189 -165 34 -6 72 -6 96 0 71 16 184 102 340 260 112 114 178 209
245 355 19 43 55 121 80 173 93 195 119 271 142 415 6 33 19 114 31 180 14 85
19 143 15 200 -7 96 -30 217 -51 260 -20 43 -101 133 -135 150 -31 17 -111 18
-179 3z m184 -187 c29 -32 47 -108 40 -170 -8 -66 -17 -88 -43 -96 -23 -7
-119 39 -143 69 -36 44 -16 127 45 194 26 28 77 29 101 3z m-52 -453 c-9 -9
-15 -9 -24 0 -10 10 -10 15 2 22 20 12 38 -6 22 -22z"/>
<path d="M3725 3621 c-82 -30 -187 -82 -365 -181 -96 -53 -346 -177 -490 -243
-19 -9 -75 -35 -125 -57 -49 -23 -135 -61 -190 -84 -55 -24 -120 -55 -143 -70
-80 -50 -114 -67 -241 -117 -114 -46 -136 -51 -226 -56 -56 -3 -127 0 -160 6
-134 25 -246 109 -280 212 -27 82 -68 84 -100 6 -20 -49 -22 -144 -4 -179 21
-41 110 -102 213 -147 158 -69 309 -93 423 -66 37 9 79 18 92 21 13 3 56 -3
95 -12 65 -15 103 -26 286 -84 36 -11 112 -28 170 -39 58 -11 155 -28 215 -39
269 -49 576 -72 979 -72 241 0 329 4 525 25 450 48 506 56 843 116 32 5 106
25 165 43 60 19 149 45 200 60 50 14 133 44 183 67 l92 41 331 8 c183 5 352
13 376 20 23 6 100 14 170 19 118 8 131 10 205 47 100 50 154 97 194 171 41
78 48 128 25 172 -10 19 -23 36 -30 38 -6 3 -30 -21 -52 -51 -29 -39 -69 -74
-140 -121 -55 -36 -108 -69 -118 -73 -10 -4 -49 -25 -87 -46 -122 -69 -310
-90 -578 -62 -89 9 -208 21 -263 27 -98 10 -268 35 -432 64 -44 8 -116 26
-160 39 -43 14 -112 32 -153 41 -166 34 -512 143 -637 201 -43 20 -121 53
-173 74 -52 21 -210 95 -352 164 -141 69 -258 126 -260 125 -1 -1 -12 -4 -23
-8z"/>
<path d="M10211 2040 c-81 -153 -275 -369 -402 -449 -49 -31 -75 -57 -109
-108 -30 -45 -53 -69 -67 -71 -25 -4 -80 26 -196 105 -98 67 -182 113 -207
113 -25 0 21 -46 176 -176 135 -113 155 -138 240 -295 107 -197 114 -215 114
-266 0 -27 7 -73 15 -103 19 -72 19 -210 0 -257 -8 -19 -19 -63 -25 -97 -20
-124 -37 -163 -101 -227 -69 -69 -101 -77 -98 -27 1 18 -3 46 -10 61 -6 16
-11 38 -11 51 0 12 -26 52 -60 91 -33 39 -72 85 -87 104 -16 19 -40 46 -54 60
-14 14 -47 51 -74 81 -87 100 -257 274 -309 319 -28 23 -62 53 -76 65 -81 68
-99 83 -130 106 -19 14 -48 37 -64 51 -17 14 -50 38 -73 53 -24 14 -43 30 -43
34 0 4 -23 21 -51 37 -28 17 -80 49 -116 73 -35 23 -70 42 -76 42 -7 0 -30 11
-52 25 -22 13 -49 25 -60 25 -10 0 -37 6 -60 14 -22 8 -74 24 -115 36 -41 11
-82 25 -90 31 -8 5 -27 14 -42 20 -16 6 -28 15 -28 20 0 5 -18 9 -41 9 -32 0
-42 4 -46 20 -3 11 -13 20 -23 20 -27 0 -50 33 -50 71 0 19 14 70 30 113 24
60 28 82 19 92 -34 41 -85 -1 -142 -118 -120 -244 -180 -589 -181 -1048 -1
-195 2 -252 19 -334 l19 -98 -23 -19 c-13 -11 -29 -19 -36 -19 -6 0 -72 -31
-146 -68 -74 -37 -165 -76 -204 -86 -38 -10 -135 -39 -214 -64 l-145 -47 1764
-3 c970 -1 1765 -1 1767 1 2 2 2 471 1 1043 l-3 1039 -24 -45z"/>
</g>
</svg>
